<?xml version="1.0" standalone="no"?>
<!DOCTYPE svg PUBLIC "-//W3C//DTD SVG 20010904//EN"
 "http://www.w3.org/TR/2001/REC-SVG-20010904/DTD/svg10.dtd">
<svg version="1.0" xmlns="http://www.w3.org/2000/svg"
 width="48.000000pt" height="48.000000pt" viewBox="0 0 48.000000 48.000000"
 preserveAspectRatio="xMidYMid meet">

<g transform="translate(0.000000,48.000000) scale(0.100000,-0.100000)"
fill="#000000" stroke="none">
<path d="M80 400 c-18 -18 -20 -33 -20 -160 0 -127 2 -142 20 -160 18 -18 33
-20 160 -20 187 0 180 -7 180 180 0 187 7 180 -180 180 -127 0 -142 -2 -160
-20z m94 -22 c5 -10 7 -10 12 0 8 17 24 15 24 -3 0 -9 10 -15 26 -15 23 0 25
-3 22 -42 -2 -35 -7 -43 -23 -43 -16 0 -21 9 -26 40 l-6 40 -8 -42 c-9 -53
-20 -55 -29 -5 -3 20 -9 47 -12 60 -7 23 10 31 20 10z m118 -55 l1 -38 4 38
c6 52 23 46 23 -8 0 -41 -2 -45 -25 -45 -23 0 -25 4 -25 45 0 54 19 61 22 8z
m66 -85 c7 -7 12 -37 12 -68 0 -31 -5 -61 -12 -68 -16 -16 -220 -16 -236 0
-16 16 -16 120 0 136 16 16 220 16 236 0z"/>
<path d="M232 315 c0 -16 2 -22 5 -12 2 9 2 23 0 30 -3 6 -5 -1 -5 -18z"/>
<path d="M137 222 c6 -4 13 -32 16 -62 l3 -55 2 57 c1 34 7 58 15 61 6 3 -1 6
-18 6 -17 0 -25 -3 -18 -7z"/>
<path d="M241 171 c0 -35 2 -61 6 -57 4 4 6 23 4 42 -2 27 1 34 15 34 14 0 16
-7 11 -40 -3 -23 -1 -38 4 -34 5 3 9 21 9 41 0 26 -5 36 -19 40 -11 3 -22 12
-24 22 -3 9 -5 -13 -6 -48z"/>
<path d="M180 162 c0 -22 4 -43 9 -46 5 -4 7 12 4 36 -8 57 -13 61 -13 10z"/>
<path d="M218 159 c-2 -22 0 -43 4 -45 4 -3 8 15 8 40 0 57 -7 60 -12 5z"/>
<path d="M307 193 c-4 -3 -7 -20 -7 -36 0 -39 11 -28 14 12 2 34 2 34 -7 24z"/>
<path d="M337 179 c4 -13 8 -18 11 -10 2 7 -1 18 -6 23 -8 8 -9 4 -5 -13z"/>
</g>
</svg>
